<svg xmlns="http://www.w3.org/2000/svg" xmlns:xlink="http://www.w3.org/1999/xlink" version="1.1" class="marks" width="600" height="300" viewBox="0 0 600 300"><rect width="600" height="300" fill="white"/><g fill="none" stroke-miterlimit="10" transform="translate(47,10)"><g class="mark-group role-frame root" role="graphics-object" aria-roledescription="group mark container"><g transform="translate(0,0)"><path class="background" aria-hidden="true" d="M0.5,0.5h437v253h-437Z" stroke="#ddd"/><g><g class="mark-group role-axis" role="graphics-symbol" aria-roledescription="axis" aria-label="X-axis titled 'Top 1 accuracy' for a linear scale with values from 0.2 to 0.7"><g transform="translate(0.5,253.5)"><path class="background" aria-hidden="true" d="M0,0h0v0h0Z" pointer-events="none"/><g><g class="mark-rule role-axis-tick" pointer-events="none"><line transform="translate(0,0)" x2="0" y2="5" stroke="#888" stroke-width="1" opacity="1"/><line transform="translate(44,0)" x2="0" y2="5" stroke="#888" stroke-width="1" opacity="1"/><line transform="translate(87,0)" x2="0" y2="5" stroke="#888" stroke-width="1" opacity="1"/><line transform="translate(131,0)" x2="0" y2="5" stroke="#888" stroke-width="1" opacity="1"/><line transform="translate(175,0)" x2="0" y2="5" stroke="#888" stroke-width="1" opacity="1"/><line transform="translate(219,0)" x2="0" y2="5" stroke="#888" stroke-width="1" opacity="1"/><line transform="translate(262,0)" x2="0" y2="5" stroke="#888" stroke-width="1" opacity="1"/><line transform="translate(306,0)" x2="0" y2="5" stroke="#888" stroke-width="1" opacity="1"/><line transform="translate(350,0)" x2="0" y2="5" stroke="#888" stroke-width="1" opacity="1"/><line transform="translate(393,0)" x2="0" y2="5" stroke="#888" stroke-width="1" opacity="1"/><line transform="translate(437,0)" x2="0" y2="5" stroke="#888" stroke-width="1" opacity="1"/></g><g class="mark-text role-axis-label" pointer-events="none"><text text-anchor="start" transform="translate(0,15)" font-family="sans-serif" font-size="10px" fill="#000" opacity="1">0.20</text><text text-anchor="middle" transform="translate(43.69999999999999,15)" font-family="sans-serif" font-size="10px" fill="#000" opacity="1">0.25</text><text text-anchor="middle" transform="translate(87.40000000000003,15)" font-family="sans-serif" font-size="10px" fill="#000" opacity="1">0.30</text><text text-anchor="middle" transform="translate(131.10000000000002,15)" font-family="sans-serif" font-size="10px" fill="#000" opacity="1">0.35</text><text text-anchor="middle" transform="translate(174.8,15)" font-family="sans-serif" font-size="10px" fill="#000" opacity="1">0.40</text><text text-anchor="middle" transform="translate(218.5,15)" font-family="sans-serif" font-size="10px" fill="#000" opacity="1">0.45</text><text text-anchor="middle" transform="translate(262.2,15)" font-family="sans-serif" font-size="10px" fill="#000" opacity="1">0.50</text><text text-anchor="middle" transform="translate(305.90000000000003,15)" font-family="sans-serif" font-size="10px" fill="#000" opacity="1">0.55</text><text text-anchor="middle" transform="translate(349.6000000000001,15)" font-family="sans-serif" font-size="10px" fill="#000" opacity="1">0.60</text><text text-anchor="middle" transform="translate(393.3,15)" font-family="sans-serif" font-size="10px" fill="#000" opacity="1">0.65</text><text text-anchor="end" transform="translate(436.99999999999994,15)" font-family="sans-serif" font-size="10px" fill="#000" opacity="1">0.70</text></g><g class="mark-rule role-axis-domain" pointer-events="none"><line transform="translate(0,0)" x2="437" y2="0" stroke="#888" stroke-width="1" opacity="1"/></g><g class="mark-text role-axis-title" pointer-events="none"><text text-anchor="middle" transform="translate(218.5,30)" font-family="sans-serif" font-size="11px" font-weight="bold" fill="#000" opacity="1">Top 1 accuracy</text></g></g><path class="foreground" aria-hidden="true" d="" pointer-events="none" display="none"/></g></g><g class="mark-group role-axis" role="graphics-symbol" aria-roledescription="axis" aria-label="Y-axis titled 'Top 3 accuracy' for a linear scale with values from 0.4 to 0.9"><g transform="translate(0.5,0.5)"><path class="background" aria-hidden="true" d="M0,0h0v0h0Z" pointer-events="none"/><g><g class="mark-rule role-axis-tick" pointer-events="none"><line transform="translate(0,253)" x2="-5" y2="0" stroke="#888" stroke-width="1" opacity="1"/><line transform="translate(0,228)" x2="-5" y2="0" stroke="#888" stroke-width="1" opacity="1"/><line transform="translate(0,202)" x2="-5" y2="0" stroke="#888" stroke-width="1" opacity="1"/><line transform="translate(0,177)" x2="-5" y2="0" stroke="#888" stroke-width="1" opacity="1"/><line transform="translate(0,152)" x2="-5" y2="0" stroke="#888" stroke-width="1" opacity="1"/><line transform="translate(0,127)" x2="-5" y2="0" stroke="#888" stroke-width="1" opacity="1"/><line transform="translate(0,101)" x2="-5" y2="0" stroke="#888" stroke-width="1" opacity="1"/><line transform="translate(0,76)" x2="-5" y2="0" stroke="#888" stroke-width="1" opacity="1"/><line transform="translate(0,51)" x2="-5" y2="0" stroke="#888" stroke-width="1" opacity="1"/><line transform="translate(0,25)" x2="-5" y2="0" stroke="#888" stroke-width="1" opacity="1"/><line transform="translate(0,0)" x2="-5" y2="0" stroke="#888" stroke-width="1" opacity="1"/></g><g class="mark-text role-axis-label" pointer-events="none"><text text-anchor="end" transform="translate(-7,256)" font-family="sans-serif" font-size="10px" fill="#000" opacity="1">0.40</text><text text-anchor="end" transform="translate(-7,230.70000000000002)" font-family="sans-serif" font-size="10px" fill="#000" opacity="1">0.45</text><text text-anchor="end" transform="translate(-7,205.4)" font-family="sans-serif" font-size="10px" fill="#000" opacity="1">0.50</text><text text-anchor="end" transform="translate(-7,180.1)" font-family="sans-serif" font-size="10px" fill="#000" opacity="1">0.55</text><text text-anchor="end" transform="translate(-7,154.79999999999995)" font-family="sans-serif" font-size="10px" fill="#000" opacity="1">0.60</text><text text-anchor="end" transform="translate(-7,129.5)" font-family="sans-serif" font-size="10px" fill="#000" opacity="1">0.65</text><text text-anchor="end" transform="translate(-7,104.19999999999997)" font-family="sans-serif" font-size="10px" fill="#000" opacity="1">0.70</text><text text-anchor="end" transform="translate(-7,78.9)" font-family="sans-serif" font-size="10px" fill="#000" opacity="1">0.75</text><text text-anchor="end" transform="translate(-7,53.59999999999999)" font-family="sans-serif" font-size="10px" fill="#000" opacity="1">0.80</text><text text-anchor="end" transform="translate(-7,28.299999999999965)" font-family="sans-serif" font-size="10px" fill="#000" opacity="1">0.85</text><text text-anchor="end" transform="translate(-7,3)" font-family="sans-serif" font-size="10px" fill="#000" opacity="1">0.90</text></g><g class="mark-rule role-axis-domain" pointer-events="none"><line transform="translate(0,253)" x2="0" y2="-253" stroke="#888" stroke-width="1" opacity="1"/></g><g class="mark-text role-axis-title" pointer-events="none"><text text-anchor="middle" transform="translate(-30.462890625,126.5) rotate(-90) translate(0,-2)" font-family="sans-serif" font-size="11px" font-weight="bold" fill="#000" opacity="1">Top 3 accuracy</text></g></g><path class="foreground" aria-hidden="true" d="" pointer-events="none" display="none"/></g></g><g class="mark-symbol role-mark marks" role="graphics-object" aria-roledescription="symbol mark container"><path aria-label="Top 1 accuracy: 0.4 – 0.45; Top 3 accuracy: 0.85 – 0.9; Count of Records: 2" role="graphics-symbol" aria-roledescription="circle" transform="translate(196.65000000000003,12.650000000000011)" d="M1.877,0A1.877,1.877,0,1,1,-1.877,0A1.877,1.877,0,1,1,1.877,0" fill="#4c78a8" stroke-width="2"/><path aria-label="Top 1 accuracy: 0.3 – 0.35; Top 3 accuracy: 0.85 – 0.9; Count of Records: 1" role="graphics-symbol" aria-roledescription="circle" transform="translate(109.25000000000004,12.650000000000011)" d="M1.327,0A1.327,1.327,0,1,1,-1.327,0A1.327,1.327,0,1,1,1.327,0" fill="#4c78a8" stroke-width="2"/><path aria-label="Top 1 accuracy: 0.4 – 0.45; Top 3 accuracy: 0.75 – 0.8; Count of Records: 23" role="graphics-symbol" aria-roledescription="circle" transform="translate(196.65000000000003,63.25)" d="M6.365,0A6.365,6.365,0,1,1,-6.365,0A6.365,6.365,0,1,1,6.365,0" fill="#4c78a8" stroke-width="2"/><path aria-label="Top 1 accuracy: 0.3 – 0.35; Top 3 accuracy: 0.75 – 0.8; Count of Records: 13" role="graphics-symbol" aria-roledescription="circle" transform="translate(109.25000000000004,63.25)" d="M4.785,0A4.785,4.785,0,1,1,-4.785,0A4.785,4.785,0,1,1,4.785,0" fill="#4c78a8" stroke-width="2"/><path aria-label="Top 1 accuracy: 0.2 – 0.25; Top 3 accuracy: 0.75 – 0.8; Count of Records: 3" role="graphics-symbol" aria-roledescription="circle" transform="translate(21.849999999999994,63.25)" d="M2.299,0A2.299,2.299,0,1,1,-2.299,0A2.299,2.299,0,1,1,2.299,0" fill="#4c78a8" stroke-width="2"/><path aria-label="Top 1 accuracy: 0.65 – 0.7; Top 3 accuracy: 0.75 – 0.8; Count of Records: 4" role="graphics-symbol" aria-roledescription="circle" transform="translate(415.15000000000003,63.25)" d="M2.654,0A2.654,2.654,0,1,1,-2.654,0A2.654,2.654,0,1,1,2.654,0" fill="#4c78a8" stroke-width="2"/><path aria-label="Top 1 accuracy: 0.55 – 0.6; Top 3 accuracy: 0.75 – 0.8; Count of Records: 19" role="graphics-symbol" aria-roledescription="circle" transform="translate(327.75000000000006,63.25)" d="M5.785,0A5.785,5.785,0,1,1,-5.785,0A5.785,5.785,0,1,1,5.785,0" fill="#4c78a8" stroke-width="2"/><path aria-label="Top 1 accuracy: 0.4 – 0.45; Top 3 accuracy: 0.65 – 0.7; Count of Records: 59" role="graphics-symbol" aria-roledescription="circle" transform="translate(196.65000000000003,113.85)" d="M10.194,0A10.194,10.194,0,1,1,-10.194,0A10.194,10.194,0,1,1,10.194,0" fill="#4c78a8" stroke-width="2"/><path aria-label="Top 1 accuracy: 0.55 – 0.6; Top 3 accuracy: 0.65 – 0.7; Count of Records: 82" role="graphics-symbol" aria-roledescription="circle" transform="translate(327.75000000000006,113.85)" d="M12.018,0A12.018,12.018,0,1,1,-12.017,0A12.018,12.018,0,1,1,12.018,0" fill="#4c78a8" stroke-width="2"/><path aria-label="Top 1 accuracy: 0.65 – 0.7; Top 3 accuracy: 0.65 – 0.7; Count of Records: 18" role="graphics-symbol" aria-roledescription="circle" transform="translate(415.15000000000003,113.85)" d="M5.63,0A5.63,5.63,0,1,1,-5.63,0A5.63,5.63,0,1,1,5.63,0" fill="#4c78a8" stroke-width="2"/><path aria-label="Top 1 accuracy: 0.3 – 0.35; Top 3 accuracy: 0.65 – 0.7; Count of Records: 9" role="graphics-symbol" aria-roledescription="circle" transform="translate(109.25000000000004,113.85)" d="M3.981,0A3.981,3.981,0,1,1,-3.981,0A3.981,3.981,0,1,1,3.981,0" fill="#4c78a8" stroke-width="2"/><path aria-label="Top 1 accuracy: 0.2 – 0.25; Top 3 accuracy: 0.65 – 0.7; Count of Records: 4" role="graphics-symbol" aria-roledescription="circle" transform="translate(21.849999999999994,113.85)" d="M2.654,0A2.654,2.654,0,1,1,-2.654,0A2.654,2.654,0,1,1,2.654,0" fill="#4c78a8" stroke-width="2"/><path aria-label="Top 1 accuracy: 0.55 – 0.6; Top 3 accuracy: 0.55 – 0.6; Count of Records: 22" role="graphics-symbol" aria-roledescription="circle" transform="translate(327.75000000000006,164.45)" d="M6.225,0A6.225,6.225,0,1,1,-6.225,0A6.225,6.225,0,1,1,6.225,0" fill="#4c78a8" stroke-width="2"/><path aria-label="Top 1 accuracy: 0.4 – 0.45; Top 3 accuracy: 0.55 – 0.6; Count of Records: 74" role="graphics-symbol" aria-roledescription="circle" transform="translate(196.65000000000003,164.45)" d="M11.416,0A11.416,11.416,0,1,1,-11.416,0A11.416,11.416,0,1,1,11.416,0" fill="#4c78a8" stroke-width="2"/><path aria-label="Top 1 accuracy: 0.2 – 0.25; Top 3 accuracy: 0.55 – 0.6; Count of Records: 15" role="graphics-symbol" aria-roledescription="circle" transform="translate(21.849999999999994,164.45)" d="M5.14,0A5.14,5.14,0,1,1,-5.14,0A5.14,5.14,0,1,1,5.14,0" fill="#4c78a8" stroke-width="2"/><path aria-label="Top 1 accuracy: 0.3 – 0.35; Top 3 accuracy: 0.55 – 0.6; Count of Records: 28" role="graphics-symbol" aria-roledescription="circle" transform="translate(109.25000000000004,164.45)" d="M7.022,0A7.022,7.022,0,1,1,-7.022,0A7.022,7.022,0,1,1,7.022,0" fill="#4c78a8" stroke-width="2"/><path aria-label="Top 1 accuracy: 0.2 – 0.25; Top 3 accuracy: 0.4 – 0.45; Count of Records: 5" role="graphics-symbol" aria-roledescription="circle" transform="translate(21.849999999999994,240.35)" d="M2.968,0A2.968,2.968,0,1,1,-2.968,0A2.968,2.968,0,1,1,2.968,0" fill="#4c78a8" stroke-width="2"/><path aria-label="Top 1 accuracy: 0.4 – 0.45; Top 3 accuracy: 0.4 – 0.45; Count of Records: 2" role="graphics-symbol" aria-roledescription="circle" transform="translate(196.65000000000003,240.35)" d="M1.877,0A1.877,1.877,0,1,1,-1.877,0A1.877,1.877,0,1,1,1.877,0" fill="#4c78a8" stroke-width="2"/><path aria-label="Top 1 accuracy: 0.3 – 0.35; Top 3 accuracy: 0.4 – 0.45; Count of Records: 3" role="graphics-symbol" aria-roledescription="circle" transform="translate(109.25000000000004,240.35)" d="M2.299,0A2.299,2.299,0,1,1,-2.299,0A2.299,2.299,0,1,1,2.299,0" fill="#4c78a8" stroke-width="2"/></g><g class="mark-group role-legend" role="graphics-symbol" aria-roledescription="legend" aria-label="Symbol legend titled 'Count of Records' for size with values from 0 to 82"><g transform="translate(455,0)"><path class="background" aria-hidden="true" d="M0,0h93v111h-93Z" pointer-events="none"/><g><g class="mark-group role-legend-entry"><g transform="translate(0,16)"><path class="background" aria-hidden="true" d="M0,0h0v0h0Z" pointer-events="none"/><g><g class="mark-group role-scope" role="graphics-object" aria-roledescription="group mark container"><g transform="translate(0,0)"><path class="background" aria-hidden="true" d="M0,0h41.123046875v14.43502021386822h-41.123046875Z" pointer-events="none" opacity="1"/><g><g class="mark-symbol role-legend-symbol" pointer-events="none"><path transform="translate(13,7)" d="M5.935,0A5.935,5.935,0,1,1,-5.935,0A5.935,5.935,0,1,1,5.935,0" fill="#4c78a8" stroke-width="1.5" opacity="1"/></g><g class="mark-text role-legend-label" pointer-events="none"><text text-anchor="start" transform="translate(30,10)" font-family="sans-serif" font-size="10px" fill="#000" opacity="1">20</text></g></g><path class="foreground" aria-hidden="true" d="" pointer-events="none" display="none"/></g><g transform="translate(0,18)"><path class="background" aria-hidden="true" d="M0,0h41.123046875v19.393386079410902h-41.123046875Z" pointer-events="none" opacity="1"/><g><g class="mark-symbol role-legend-symbol" pointer-events="none"><path transform="translate(13,9.5)" d="M8.393,0A8.393,8.393,0,1,1,-8.393,0A8.393,8.393,0,1,1,8.393,0" fill="#4c78a8" stroke-width="1.5" opacity="1"/></g><g class="mark-text role-legend-label" pointer-events="none"><text text-anchor="start" transform="translate(30,12.5)" font-family="sans-serif" font-size="10px" fill="#000" opacity="1">40</text></g></g><path class="foreground" aria-hidden="true" d="" pointer-events="none" display="none"/></g><g transform="translate(0,41)"><path class="background" aria-hidden="true" d="M0,0h41.123046875v23.279756554368063h-41.123046875Z" pointer-events="none" opacity="1"/><g><g class="mark-symbol role-legend-symbol" pointer-events="none"><path transform="translate(13,11.5)" d="M10.28,0A10.28,10.28,0,1,1,-10.28,0A10.28,10.28,0,1,1,10.28,0" fill="#4c78a8" stroke-width="1.5" opacity="1"/></g><g class="mark-text role-legend-label" pointer-events="none"><text text-anchor="start" transform="translate(30,14.5)" font-family="sans-serif" font-size="10px" fill="#000" opacity="1">60</text></g></g><path class="foreground" aria-hidden="true" d="" pointer-events="none" display="none"/></g><g transform="translate(0,68)"><path class="background" aria-hidden="true" d="M0,0h41.123046875v26.37004042773644h-41.123046875Z" pointer-events="none" opacity="1"/><g><g class="mark-symbol role-legend-symbol" pointer-events="none"><path transform="translate(13,13)" d="M11.87,0A11.87,11.87,0,1,1,-11.87,0A11.87,11.87,0,1,1,11.87,0" fill="#4c78a8" stroke-width="1.5" opacity="1"/></g><g class="mark-text role-legend-label" pointer-events="none"><text text-anchor="start" transform="translate(30,16)" font-family="sans-serif" font-size="10px" fill="#000" opacity="1">80</text></g></g><path class="foreground" aria-hidden="true" d="" pointer-events="none" display="none"/></g></g></g><path class="foreground" aria-hidden="true" d="" pointer-events="none" display="none"/></g></g><g class="mark-text role-legend-title" pointer-events="none"><text text-anchor="start" transform="translate(0,9)" font-family="sans-serif" font-size="11px" font-weight="bold" fill="#000" opacity="1">Count of Records</text></g></g><path class="foreground" aria-hidden="true" d="" pointer-events="none" display="none"/></g></g></g><path class="foreground" aria-hidden="true" d="" display="none"/></g></g></g></svg>